<?xml version="1.0" encoding="UTF-8" standalone="no"?><!DOCTYPE svg PUBLIC "-//W3C//DTD SVG 1.1//EN" "http://www.w3.org/Graphics/SVG/1.1/DTD/svg11.dtd"><svg width="100%" height="100%" viewBox="0 0 284 284" version="1.1" xmlns="http://www.w3.org/2000/svg" xmlns:xlink="http://www.w3.org/1999/xlink" xml:space="preserve" xmlns:serif="http://www.serif.com/" style="fill-rule:evenodd;clip-rule:evenodd;stroke-linejoin:round;stroke-miterlimit:2;"><rect id="folder_opened" x="-0" y="0" width="283.465" height="283.465" style="fill:none;"/><path d="M212.787,113.098l23.719,101.991c3.286,14.13 -5.518,25.601 -19.647,25.601l-150.253,0c-14.13,0 -28.269,-11.472 -31.555,-25.601l-23.719,-101.991c-3.286,-14.13 5.518,-25.601 19.647,-25.601l150.253,0c14.13,0 28.269,11.472 31.555,25.601Z" style="fill:#b04d74;"/><path d="M106.513,89.251l18.163,78.101c3.193,13.73 -5.361,24.877 -19.091,24.877l-50.974,0c-13.73,0 -27.469,-11.147 -30.662,-24.877l-18.163,-78.101c-3.193,-13.73 5.361,-24.877 19.091,-24.877l50.974,0c13.73,0 27.469,11.147 30.662,24.877Z" style="fill:#b04d74;"/><path d="M276.612,127.111l-27.299,90.79c-3.782,12.578 -17.064,22.789 -29.642,22.789l-155.877,0c-12.578,0 -19.719,-10.212 -15.937,-22.789l27.299,-90.79c3.782,-12.578 17.064,-22.789 29.642,-22.789l155.877,0c12.578,0 19.719,10.212 15.937,22.789Z" style="fill:#e8a3b7;"/><clipPath id="_clip1"><path d="M276.612,127.111l-27.299,90.79c-3.782,12.578 -17.064,22.789 -29.642,22.789l-155.877,0c-12.578,0 -19.719,-10.212 -15.937,-22.789l27.299,-90.79c3.782,-12.578 17.064,-22.789 29.642,-22.789l155.877,0c12.578,0 19.719,10.212 15.937,22.789Z"/></clipPath><g clip-path="url(#_clip1)"><path d="M297.076,139.64l-27.282,112.532l-282.71,0l27.282,-112.532l282.71,0Z" style="fill:#dc8aa4;"/></g></svg>