<?xml version="1.0" encoding="UTF-8" standalone="no"?><!DOCTYPE svg PUBLIC "-//W3C//DTD SVG 1.1//EN" "http://www.w3.org/Graphics/SVG/1.1/DTD/svg11.dtd"><svg width="100%" height="100%" viewBox="0 0 284 284" version="1.1" xmlns="http://www.w3.org/2000/svg" xmlns:xlink="http://www.w3.org/1999/xlink" xml:space="preserve" xmlns:serif="http://www.serif.com/" style="fill-rule:evenodd;clip-rule:evenodd;stroke-linejoin:round;stroke-miterlimit:2;"><rect id="folder_closed" x="0" y="0" width="283.465" height="283.465" style="fill:none;"/><path d="M242.46,97.467l0,114.486c0,15.861 -12.877,28.738 -28.738,28.738l-143.98,0c-15.861,0 -28.738,-12.877 -28.738,-28.738l0,-114.486c0,-15.861 12.877,-28.738 28.738,-28.738l143.98,0c15.861,0 28.738,12.877 28.738,28.738Z" style="fill:#b04d74;"/><path d="M141.732,67.651l0,93.764c0,13.73 -11.147,24.877 -24.877,24.877l-50.974,0c-13.73,0 -24.877,-11.147 -24.877,-24.877l0,-93.764c0,-13.73 11.147,-24.877 24.877,-24.877l50.974,0c13.73,0 24.877,11.147 24.877,24.877Z" style="fill:#b04d74;"/><path d="M242.46,113.619l0,101.575c0,14.072 -11.425,25.497 -25.497,25.497l-150.462,0c-14.072,0 -25.497,-11.425 -25.497,-25.497l0,-101.575c0,-14.072 11.425,-25.497 25.497,-25.497l150.462,0c14.072,0 25.497,11.425 25.497,25.497Z" style="fill:#e8a3b7;"/><clipPath id="_clip1"><path d="M242.46,113.619l0,101.575c0,14.072 -11.425,25.497 -25.497,25.497l-150.462,0c-14.072,0 -25.497,-11.425 -25.497,-25.497l0,-101.575c0,-14.072 11.425,-25.497 25.497,-25.497l150.462,0c14.072,0 25.497,11.425 25.497,25.497Z"/></clipPath><g clip-path="url(#_clip1)"><path d="M266.691,127.635l6.555,125.9l-282.71,0l-6.555,-125.9l282.71,0Z" style="fill:#dc8aa4;"/></g></svg>